<svg width="16" height="11" viewBox="0 0 16 11" fill="none" xmlns="http://www.w3.org/2000/svg">
<path d="M8 0C3.29359 0 0.5 5.1184 0.5 5.1184C0.5 5.1184 3.29359 10.2367 8 10.2367C12.7064 10.2367 15.5 5.1184 15.5 5.1184C15.5 5.1184 12.7064 0 8 0ZM7.99988 8.17222C6.31601 8.17222 4.94605 6.80226 4.94605 5.1184C4.94605 3.43453 6.31601 2.06457 7.99988 2.06457C9.68374 2.06457 11.0537 3.43453 11.0537 5.1184C11.0537 6.80226 9.68374 8.17222 7.99988 8.17222Z" fill="#3261BB"/>
<path d="M7.99998 6.99435C8.9956 6.99435 9.8027 6.18725 9.8027 5.19163C9.8027 4.19602 8.9956 3.38892 7.99998 3.38892C7.00437 3.38892 6.19727 4.19602 6.19727 5.19163C6.19727 6.18725 7.00437 6.99435 7.99998 6.99435Z" fill="#3261BB"/>
</svg>
