<svg width="24" height="24" viewBox="0 0 24 24" fill="none" xmlns="http://www.w3.org/2000/svg">
<path d="M23.7666 9.64977H22.8V9.59997H12V14.4H18.7818C17.7924 17.1941 15.1338 19.1999 12 19.1999C8.0238 19.1999 4.8 15.9761 4.8 12C4.8 8.02377 8.0238 4.79998 12 4.79998C13.8354 4.79998 15.5052 5.49238 16.7766 6.62338L20.1708 3.22919C18.0276 1.2318 15.1608 0 12 0C5.373 0 0 5.37298 0 12C0 18.6269 5.373 23.9999 12 23.9999C18.627 23.9999 24 18.6269 24 12C24 11.1954 23.9172 10.41 23.7666 9.64977Z" fill="#FFC107"/>
<path d="M1.38379 6.41458L5.32639 9.30597C6.39319 6.66478 8.97679 4.79998 12.0002 4.79998C13.8356 4.79998 15.5054 5.49238 16.7768 6.62338L20.171 3.22919C18.0278 1.2318 15.161 0 12.0002 0C7.39099 0 3.39379 2.60219 1.38379 6.41458Z" fill="#FF3D00"/>
<path d="M11.9999 24.0002C15.0995 24.0002 17.9159 22.814 20.0453 20.885L16.3313 17.7422C15.1265 18.6548 13.6289 19.2002 11.9999 19.2002C8.87869 19.2002 6.22849 17.21 5.23009 14.4326L1.31689 17.4476C3.30289 21.3338 7.33609 24.0002 11.9999 24.0002Z" fill="#4CAF50"/>
<path d="M23.7666 9.64941H22.8V9.59961H12V14.3996H18.7818C18.3066 15.7418 17.4432 16.8992 16.3296 17.7422C16.3302 17.7416 16.3308 17.7416 16.3314 17.741L20.0454 20.8838C19.7826 21.1226 24 17.9996 24 11.9996C24 11.195 23.9172 10.4096 23.7666 9.64941Z" fill="#1976D2"/>
</svg>
